<svg width="128" height="118" viewBox="0 0 128 118" fill="none" xmlns="http://www.w3.org/2000/svg">
<g clip-path="url(#clip0_1879_2158)">
<ellipse cx="60.9601" cy="26.4465" rx="60.9601" ry="26.4465" transform="matrix(0.976153 -0.217084 0.169914 0.985459 0 67.8848)" fill="#E5EBF5"/>
<mask id="mask0_1879_2158" style="mask-type:alpha" maskUnits="userSpaceOnUse" x="4" y="51" width="120" height="60">
<ellipse cx="60.9601" cy="26.4465" rx="60.9601" ry="26.4465" transform="matrix(0.976153 -0.217084 0.169914 0.985459 0 68.1211)" fill="#E5EBF5"/>
</mask>
<g mask="url(#mask0_1879_2158)">
<ellipse cx="65.2546" cy="41.3704" rx="65.2546" ry="41.3704" transform="matrix(0.626313 -0.779573 0.694426 0.719564 18.125 55.9805)" fill="#23262F"/>
</g>
<mask id="path-4-inside-1_1879_2158" fill="white">
<path fill-rule="evenodd" clip-rule="evenodd" d="M68.0323 20.9701C66.5506 19.8863 64.5668 20.5355 64.1027 22.2561L51.9852 67.1725C51.0915 70.078 49.0361 72.3953 46.3055 73.5569L76.0168 95.6693C79.0455 94.4285 81.2583 91.7756 82.0142 88.4791L82.5446 86.1662L82.5386 86.1617L94.3338 42.4398C94.633 41.3306 94.1873 40.1019 93.232 39.4032L68.0323 20.9701Z"/>
</mask>
<path fill-rule="evenodd" clip-rule="evenodd" d="M68.0323 20.9701C66.5506 19.8863 64.5668 20.5355 64.1027 22.2561L51.9852 67.1725C51.0915 70.078 49.0361 72.3953 46.3055 73.5569L76.0168 95.6693C79.0455 94.4285 81.2583 91.7756 82.0142 88.4791L82.5446 86.1662L82.5386 86.1617L94.3338 42.4398C94.633 41.3306 94.1873 40.1019 93.232 39.4032L68.0323 20.9701Z" fill="white"/>
<path d="M64.1027 22.2561L64.7316 22.4749L64.7316 22.4749L64.1027 22.2561ZM68.0323 20.9701L68.3858 20.4298L68.3858 20.4298L68.0323 20.9701ZM51.9852 67.1725L52.6078 67.4131L52.6111 67.4023L52.6141 67.3913L51.9852 67.1725ZM46.3055 73.5569L46.0243 72.9325L44.9825 73.3757L45.9473 74.0938L46.3055 73.5569ZM76.0168 95.6693L75.6586 96.2061L75.9616 96.4316L76.2907 96.2968L76.0168 95.6693ZM82.0142 88.4791L82.6492 88.6737L82.0142 88.4791ZM82.5446 86.1662L83.1796 86.3608L83.2835 85.9076L82.898 85.6258L82.5446 86.1662ZM82.5386 86.1617L81.9096 85.9429L81.784 86.4088L82.1852 86.7021L82.5386 86.1617ZM94.3338 42.4398L94.9627 42.6587L94.3338 42.4398ZM93.232 39.4032L92.8785 39.9435L93.232 39.4032ZM64.7316 22.4749C65.0797 21.1844 66.5676 20.6976 67.6788 21.5104L68.3858 20.4298C66.5337 19.075 64.054 19.8865 63.4737 22.0372L64.7316 22.4749ZM52.6141 67.3913L64.7316 22.4749L63.4737 22.0372L51.3563 66.9536L52.6141 67.3913ZM46.5868 74.1813C49.4815 72.9499 51.6604 70.4933 52.6078 67.4131L51.3626 66.9318C50.5226 69.6627 48.5907 71.8408 46.0243 72.9325L46.5868 74.1813ZM76.3751 95.1325L46.6638 73.0201L45.9473 74.0938L75.6586 96.2061L76.3751 95.1325ZM81.3793 88.2845C80.6688 91.3826 78.5892 93.8757 75.7429 95.0418L76.2907 96.2968C79.5017 94.9813 81.8477 92.1687 82.6492 88.6737L81.3793 88.2845ZM81.9097 85.9716L81.3793 88.2845L82.6492 88.6737L83.1796 86.3608L81.9097 85.9716ZM82.1852 86.7021L82.1913 86.7066L82.898 85.6258L82.8919 85.6213L82.1852 86.7021ZM93.7049 42.221L81.9096 85.9429L83.1675 86.3806L94.9627 42.6587L93.7049 42.221ZM92.8785 39.9435C93.595 40.4676 93.9293 41.3891 93.7049 42.221L94.9627 42.6587C95.3368 41.2721 94.7796 39.7363 93.5855 38.8629L92.8785 39.9435ZM67.6788 21.5104L92.8785 39.9435L93.5855 38.8629L68.3858 20.4298L67.6788 21.5104Z" fill="black" mask="url(#path-4-inside-1_1879_2158)"/>
<mask id="mask1_1879_2158" style="mask-type:alpha" maskUnits="userSpaceOnUse" x="47" y="21" width="47" height="75">
<mask id="path-6-inside-2_1879_2158" fill="white">
<path fill-rule="evenodd" clip-rule="evenodd" d="M68.42 21.9745C66.9385 20.8796 64.9446 21.526 64.4789 23.2521L52.5248 67.5633C51.6353 70.3439 49.6608 72.5666 47.0448 73.7089L75.7279 95.2821C78.6704 94.044 80.8162 91.4486 81.5559 88.2332L82.0918 85.9034L82.0817 85.8959L93.6885 42.8724C93.9864 41.7681 93.5459 40.5447 92.5981 39.8442L68.42 21.9745Z"/>
</mask>
<path fill-rule="evenodd" clip-rule="evenodd" d="M68.42 21.9745C66.9385 20.8796 64.9446 21.526 64.4789 23.2521L52.5248 67.5633C51.6353 70.3439 49.6608 72.5666 47.0448 73.7089L75.7279 95.2821C78.6704 94.044 80.8162 91.4486 81.5559 88.2332L82.0918 85.9034L82.0817 85.8959L93.6885 42.8724C93.9864 41.7681 93.5459 40.5447 92.5981 39.8442L68.42 21.9745Z" fill="white"/>
<path d="M64.4789 23.2521L65.1079 23.471L64.4789 23.2521ZM68.42 21.9745L68.0636 22.5128L68.42 21.9745ZM52.5248 67.5633L53.1452 67.8109L53.1498 67.7966L53.1537 67.7821L52.5248 67.5633ZM47.0448 73.7089L46.7584 73.0868L45.738 73.5323L46.6837 74.2436L47.0448 73.7089ZM75.7279 95.2821L75.3668 95.8168L75.6738 96.0477L76.007 95.9074L75.7279 95.2821ZM81.5559 88.2332L80.921 88.0382L81.5559 88.2332ZM82.0918 85.9034L82.7267 86.0984L82.8303 85.6477L82.4482 85.3652L82.0918 85.9034ZM82.0817 85.8959L81.4527 85.6771L81.3278 86.1402L81.7253 86.4341L82.0817 85.8959ZM92.5981 39.8442L92.9544 39.306L92.5981 39.8442ZM65.1079 23.471C65.4571 22.1764 66.9525 21.6916 68.0636 22.5128L68.7763 21.4363C66.9245 20.0676 64.4321 20.8756 63.85 23.0333L65.1079 23.471ZM53.1537 67.7821L65.1079 23.471L63.85 23.0333L51.8958 67.3445L53.1537 67.7821ZM47.3313 74.3311C50.1067 73.1191 52.2015 70.761 53.1452 67.8109L51.9043 67.3157C51.0691 69.9268 49.2149 72.0141 46.7584 73.0868L47.3313 74.3311ZM76.0891 94.7475L47.406 73.1743L46.6837 74.2436L75.3668 95.8168L76.0891 94.7475ZM80.921 88.0382C80.2265 91.0573 78.2117 93.4942 75.4488 94.6568L76.007 95.9074C79.1292 94.5937 81.4059 91.8399 82.1907 88.4283L80.921 88.0382ZM81.4569 85.7083L80.921 88.0382L82.1907 88.4283L82.7267 86.0984L81.4569 85.7083ZM81.7253 86.4341L81.7354 86.4416L82.4482 85.3652L82.4381 85.3577L81.7253 86.4341ZM93.0595 42.6536L81.4527 85.6771L82.7106 86.1147L94.3174 43.0913L93.0595 42.6536ZM92.2417 40.3824C92.9526 40.9078 93.283 41.8253 93.0595 42.6536L94.3174 43.0913C94.6898 41.7108 94.1392 40.1816 92.9544 39.306L92.2417 40.3824ZM68.0636 22.5128L92.2417 40.3824L92.9544 39.306L68.7763 21.4363L68.0636 22.5128Z" fill="black" mask="url(#path-6-inside-2_1879_2158)"/>
</mask>
<g mask="url(#mask1_1879_2158)">
<rect width="75.8295" height="39.9664" transform="matrix(0.826293 0.60708 -0.48412 0.850609 59.3203 -22.1055)" fill="#8AABFF"/>
</g>
<mask id="path-9-inside-3_1879_2158" fill="white">
<path fill-rule="evenodd" clip-rule="evenodd" d="M52.5183 10.3719C51.2653 9.78797 49.8512 9.70961 48.5731 10.1533L41.7044 12.5381L41.5788 64.1052C41.092 67.041 39.4398 69.6281 36.9848 71.2653L63.7407 84.4192L66.2908 84.4101C70.6918 84.3944 74.2718 81.0351 74.5921 76.6206L74.5904 76.6197L80.0369 27.2888C80.2923 24.9761 79.0141 22.7201 76.8865 21.7286L52.5183 10.3719Z"/>
</mask>
<path fill-rule="evenodd" clip-rule="evenodd" d="M52.5183 10.3719C51.2653 9.78797 49.8512 9.70961 48.5731 10.1533L41.7044 12.5381L41.5788 64.1052C41.092 67.041 39.4398 69.6281 36.9848 71.2653L63.7407 84.4192L66.2908 84.4101C70.6918 84.3944 74.2718 81.0351 74.5921 76.6206L74.5904 76.6197L80.0369 27.2888C80.2923 24.9761 79.0141 22.7201 76.8865 21.7286L52.5183 10.3719Z" fill="white"/>
<path d="M48.5731 10.1533L48.8047 10.7824L48.5731 10.1533ZM52.5183 10.3719L52.2568 10.9736L52.5183 10.3719ZM41.7044 12.5381L41.4728 11.9091L41.0462 12.0572L41.0451 12.5162L41.7044 12.5381ZM41.5788 64.1052L42.2292 64.2341L42.238 64.1811L42.2382 64.1271L41.5788 64.1052ZM36.9848 71.2653L36.6094 70.7077L35.6569 71.3429L36.7105 71.8609L36.9848 71.2653ZM63.7407 84.4192L63.4664 85.0148L63.6078 85.0843L63.7631 85.0837L63.7407 84.4192ZM66.2908 84.4101L66.3132 85.0746L66.2908 84.4101ZM74.5921 76.6206L75.2498 76.6891L75.2834 76.2251L74.8607 76.0222L74.5921 76.6206ZM74.5904 76.6197L73.935 76.5264L73.882 77.0069L74.3218 77.2181L74.5904 76.6197ZM80.0369 27.2888L80.6923 27.3822L80.0369 27.2888ZM76.8865 21.7286L77.1481 21.1268L76.8865 21.7286ZM48.8047 10.7824C49.923 10.3941 51.1604 10.4627 52.2568 10.9736L52.7799 9.77022C51.3702 9.11326 49.7793 9.02511 48.3415 9.5243L48.8047 10.7824ZM41.936 13.1671L48.8047 10.7824L48.3415 9.5243L41.4728 11.9091L41.936 13.1671ZM42.2382 64.1271L42.3638 12.56L41.0451 12.5162L40.9194 64.0833L42.2382 64.1271ZM37.3602 71.8229C39.9622 70.0877 41.7133 67.3457 42.2292 64.2341L40.9284 63.9763C40.4707 66.7363 38.9174 69.1685 36.6094 70.7077L37.3602 71.8229ZM64.015 83.8236L37.2591 70.6697L36.7105 71.8609L63.4664 85.0148L64.015 83.8236ZM66.2684 83.7455L63.7183 83.7546L63.7631 85.0837L66.3132 85.0746L66.2684 83.7455ZM73.9345 76.552C73.6387 80.6288 70.3326 83.7311 66.2684 83.7455L66.3132 85.0746C71.051 85.0578 74.905 81.4414 75.2498 76.6891L73.9345 76.552ZM74.3218 77.2181L74.3235 77.2189L74.8607 76.0222L74.859 76.0213L74.3218 77.2181ZM79.3816 27.1955L73.935 76.5264L75.2457 76.713L80.6923 27.3822L79.3816 27.1955ZM76.625 22.3303C78.4866 23.1979 79.605 25.1718 79.3816 27.1955L80.6923 27.3822C80.9796 24.7803 79.5416 22.2423 77.1481 21.1268L76.625 22.3303ZM52.2568 10.9736L76.625 22.3303L77.1481 21.1268L52.7799 9.77022L52.2568 10.9736Z" fill="black" mask="url(#path-9-inside-3_1879_2158)"/>
<mask id="mask2_1879_2158" style="mask-type:alpha" maskUnits="userSpaceOnUse" x="36" y="9" width="45" height="76">
<path fill-rule="evenodd" clip-rule="evenodd" d="M52.5027 10.3641C51.2497 9.78016 49.8355 9.7018 48.5575 10.1455L41.6888 12.5303L41.5632 64.0974C41.0763 67.0332 39.4242 69.6203 36.9692 71.2575L63.7251 84.4113L66.2752 84.4023C70.6762 84.3866 74.2562 81.0273 74.5765 76.6127L74.5748 76.6119L80.0213 27.281C80.2767 24.9682 78.9984 22.7123 76.8709 21.7207L52.5027 10.3641Z" fill="#66DE8B"/>
</mask>
<g mask="url(#mask2_1879_2158)">
<rect width="74.8744" height="40.3745" transform="matrix(0.996039 0.0393436 -0.030709 1.00202 25.7422 62.5605)" fill="#23262F"/>
<rect width="74.8744" height="4.81472" transform="matrix(0.996038 0.0393464 -0.0307069 1.00202 26.4922 54.416)" fill="#23262F"/>
</g>
<mask id="path-14-inside-4_1879_2158" fill="white">
<path fill-rule="evenodd" clip-rule="evenodd" d="M44.3549 12.4155C42.7236 11.633 40.8566 12.654 40.6598 14.4361L35.5143 61.0404C35.0815 64.0785 33.4061 66.7659 30.882 68.4492L63.4953 84.4394C66.2927 82.6255 68.0694 79.5915 68.3148 76.2094L68.4893 73.8044L68.4836 73.8017L73.4944 28.4181C73.6208 27.2727 72.995 26.1538 71.9466 25.6509L44.3549 12.4155Z"/>
</mask>
<path fill-rule="evenodd" clip-rule="evenodd" d="M44.3549 12.4155C42.7236 11.633 40.8566 12.654 40.6598 14.4361L35.5143 61.0404C35.0815 64.0785 33.4061 66.7659 30.882 68.4492L63.4953 84.4394C66.2927 82.6255 68.0694 79.5915 68.3148 76.2094L68.4893 73.8044L68.4836 73.8017L73.4944 28.4181C73.6208 27.2727 72.995 26.1538 71.9466 25.6509L44.3549 12.4155Z" fill="white"/>
<path d="M40.6598 14.4361L41.3152 14.5294L40.6598 14.4361ZM44.3549 12.4155L44.0865 13.014L44.3549 12.4155ZM35.5143 61.0404L36.167 61.1544L36.1685 61.1441L36.1697 61.1337L35.5143 61.0404ZM30.882 68.4492L30.5066 67.8916L29.5528 68.5276L30.6083 69.0451L30.882 68.4492ZM63.4953 84.4394L63.2216 85.0353L63.5576 85.2L63.8638 85.0015L63.4953 84.4394ZM68.3148 76.2094L67.6572 76.1408L68.3148 76.2094ZM68.4893 73.8044L69.1469 73.873L69.1806 73.4088L68.7577 73.2059L68.4893 73.8044ZM68.4836 73.8017L67.8283 73.7084L67.7752 74.1891L68.2153 74.4002L68.4836 73.8017ZM73.4944 28.4181L72.839 28.3248L73.4944 28.4181ZM71.9466 25.6509L72.215 25.0524L71.9466 25.6509ZM41.3152 14.5294C41.4627 13.1928 42.863 12.4271 44.0865 13.014L44.6233 11.817C42.5842 10.8389 40.2504 12.1151 40.0045 14.3428L41.3152 14.5294ZM36.1697 61.1337L41.3152 14.5294L40.0045 14.3428L34.8589 60.947L36.1697 61.1337ZM31.2574 69.0068C33.9326 67.2227 35.7083 64.3744 36.167 61.1544L34.8616 60.9263C34.4547 63.7825 32.8796 66.309 30.5066 67.8916L31.2574 69.0068ZM63.7689 83.8435L31.1556 67.8533L30.6083 69.0451L63.2216 85.0353L63.7689 83.8435ZM67.6572 76.1408C67.4265 79.3202 65.7564 82.1722 63.1267 83.8773L63.8638 85.0015C66.8291 83.0788 68.7123 79.8629 68.9724 76.2779L67.6572 76.1408ZM67.8317 73.7359L67.6572 76.1408L68.9724 76.2779L69.1469 73.873L67.8317 73.7359ZM68.2153 74.4002L68.2209 74.4029L68.7577 73.2059L68.752 73.2032L68.2153 74.4002ZM72.839 28.3248L67.8283 73.7084L69.139 73.895L74.1497 28.5114L72.839 28.3248ZM71.6782 26.2494C72.4645 26.6265 72.9339 27.4657 72.839 28.3248L74.1497 28.5114C74.3078 27.0797 73.5255 25.6811 72.215 25.0524L71.6782 26.2494ZM44.0865 13.014L71.6782 26.2494L72.215 25.0524L44.6233 11.817L44.0865 13.014Z" fill="black" mask="url(#path-14-inside-4_1879_2158)"/>
<mask id="mask3_1879_2158" style="mask-type:alpha" maskUnits="userSpaceOnUse" x="31" y="12" width="42" height="72">
<mask id="path-16-inside-5_1879_2158" fill="white">
<path fill-rule="evenodd" clip-rule="evenodd" d="M44.7456 12.4128C43.1121 11.6126 41.2282 12.6322 41.0304 14.4236L35.8895 60.9863C35.4332 63.9041 33.8252 66.4876 31.4161 68.1457L62.9219 83.9237C65.6393 82.1048 67.3595 79.1216 67.6037 75.8046L67.7863 73.3248L67.7752 73.3194L72.7627 28.1462C72.8882 27.009 72.2721 25.8968 71.2351 25.3888L44.7456 12.4128Z"/>
</mask>
<path fill-rule="evenodd" clip-rule="evenodd" d="M44.7456 12.4128C43.1121 11.6126 41.2282 12.6322 41.0304 14.4236L35.8895 60.9863C35.4332 63.9041 33.8252 66.4876 31.4161 68.1457L62.9219 83.9237C65.6393 82.1048 67.3595 79.1216 67.6037 75.8046L67.7863 73.3248L67.7752 73.3194L72.7627 28.1462C72.8882 27.009 72.2721 25.8968 71.2351 25.3888L44.7456 12.4128Z" fill="white"/>
<path d="M41.0304 14.4236L41.6858 14.5169L41.0304 14.4236ZM44.7456 12.4128L44.4722 13.0088L44.7456 12.4128ZM35.8895 60.9863L36.5409 61.1092L36.5432 61.0945L36.5448 61.0796L35.8895 60.9863ZM31.4161 68.1457L31.0331 67.5933L30.1134 68.2263L31.1373 68.7391L31.4161 68.1457ZM62.9219 83.9237L62.6431 84.5171L62.9867 84.6892L63.2982 84.4808L62.9219 83.9237ZM67.6037 75.8046L68.2613 75.8738L67.6037 75.8046ZM67.7863 73.3248L68.4439 73.394L68.4778 72.9335L68.0597 72.7288L67.7863 73.3248ZM67.7752 73.3194L67.1198 73.226L67.0672 73.7025L67.5017 73.9154L67.7752 73.3194ZM71.2351 25.3888L70.9616 25.9848L71.2351 25.3888ZM41.6858 14.5169C41.8341 13.1734 43.247 12.4087 44.4722 13.0088L45.0191 11.8168C42.9771 10.8165 40.6223 12.091 40.375 14.3303L41.6858 14.5169ZM36.5448 61.0796L41.6858 14.5169L40.375 14.3303L35.2341 60.893L36.5448 61.0796ZM31.7992 68.6981C34.3528 66.9406 36.0572 64.2021 36.5409 61.1092L35.2381 60.8634C34.8091 63.6061 33.2976 66.0347 31.0331 67.5933L31.7992 68.6981ZM63.2007 83.3304L31.6949 67.5523L31.1373 68.7391L62.6431 84.5171L63.2007 83.3304ZM66.9462 75.7354C66.7166 78.8531 65.0997 81.6571 62.5456 83.3667L63.2982 84.4808C66.1788 82.5526 68.0024 79.3902 68.2613 75.8738L66.9462 75.7354ZM67.1287 73.2556L66.9462 75.7354L68.2613 75.8738L68.4439 73.394L67.1287 73.2556ZM67.5017 73.9154L67.5128 73.9208L68.0597 72.7288L68.0486 72.7233L67.5017 73.9154ZM72.1073 28.0529L67.1198 73.226L68.4305 73.4127L73.418 28.2395L72.1073 28.0529ZM70.9616 25.9848C71.7394 26.3658 72.2015 27.2 72.1073 28.0529L73.418 28.2395C73.575 26.818 72.8048 25.4278 71.5085 24.7928L70.9616 25.9848ZM44.4722 13.0088L70.9616 25.9848L71.5085 24.7928L45.0191 11.8168L44.4722 13.0088Z" fill="black" mask="url(#path-16-inside-5_1879_2158)"/>
</mask>
<g mask="url(#mask3_1879_2158)">
<rect width="75.5705" height="40.0783" transform="matrix(0.908913 0.438432 -0.347351 0.929779 16.8516 38.7148)" fill="#2F68FC"/>
</g>
<path fill-rule="evenodd" clip-rule="evenodd" d="M54.0115 44.2229C57.5448 44.726 60.7965 41.6262 61.2742 37.2993C61.7519 32.9723 59.2748 29.0568 55.7415 28.5536C52.2081 28.0505 48.9565 31.1503 48.4787 35.4772C48.001 39.8041 50.4781 43.7197 54.0115 44.2229ZM57.4579 36.7554L55.2187 33.2246L52.2862 36.0246L54.5253 39.5554L57.4579 36.7554Z" fill="#2A54FF"/>
<path d="M45.7321 49.4815L46.1016 46.1348L59.4343 52.7925L59.0648 56.1392L45.7321 49.4815Z" fill="#23262F"/>
<path d="M45.0211 55.9698L45.3906 52.623L52.9637 56.3473L52.5942 59.694L45.0211 55.9698Z" fill="#23262F"/>
</g>
<defs>
<clipPath id="clip0_1879_2158">
<rect width="128" height="118" fill="white"/>
</clipPath>
</defs>
</svg>
