<svg width="128" height="118" viewBox="0 0 128 118" fill="none" xmlns="http://www.w3.org/2000/svg">
<g clip-path="url(#clip0_1879_2145)">
<ellipse cx="60.8779" cy="22.5246" rx="60.8779" ry="22.5246" transform="matrix(0.953744 0.30062 -0.263624 0.964625 11.875 35.957)" fill="#E5EBF5"/>
<mask id="mask0_1879_2145" style="mask-type:alpha" maskUnits="userSpaceOnUse" x="5" y="47" width="118" height="58">
<ellipse cx="60.8779" cy="22.5246" rx="60.8779" ry="22.5246" transform="matrix(0.953744 0.30062 -0.263624 0.964625 11.875 35.959)" fill="#E5EBF5"/>
</mask>
<g mask="url(#mask0_1879_2145)">
<ellipse cx="43.5002" cy="16.1909" rx="43.5002" ry="16.1909" transform="matrix(0.978133 -0.207982 0.181295 0.983429 46.1094 51.9121)" fill="#23262F"/>
</g>
<path d="M102.119 45.2439C100.419 51.3237 97.0858 56.231 93.0899 59.2573C89.0941 62.2835 84.4617 63.4145 80.1237 62.0159C75.7857 60.6173 72.4993 56.9332 70.7164 52.0439C68.9335 47.1545 68.668 41.0867 70.3677 35.007C72.0673 28.9272 75.401 24.0198 79.3969 20.9935C83.3926 17.9673 88.0251 16.8364 92.3631 18.235C96.7011 19.6336 99.9874 23.3176 101.77 28.2069C103.553 33.0964 103.819 39.1641 102.119 45.2439Z" fill="white" stroke="black" stroke-width="0.890903"/>
<mask id="mask1_1879_2145" style="mask-type:alpha" maskUnits="userSpaceOnUse" x="69" y="17" width="35" height="46">
<ellipse cx="16.9867" cy="22.6533" rx="16.9867" ry="22.6533" transform="matrix(0.944301 0.304451 -0.271151 0.969923 76.2812 12.9727)" fill="#00E887"/>
</mask>
<g mask="url(#mask1_1879_2145)">
<rect width="48.5279" height="25.6574" transform="matrix(0.748266 0.685207 -0.613274 0.772478 86.6484 0.292969)" fill="#8AABFF"/>
</g>
<path d="M72.0124 27.9202C80.9427 41.0193 79.6436 58.2402 69.2523 66.4121C58.8609 74.584 43.1832 70.7139 34.2529 57.6148C25.3226 44.5157 26.6217 27.2948 37.013 19.1229C47.4043 10.951 63.0821 14.8211 72.0124 27.9202Z" fill="white" stroke="black" stroke-width="0.532499"/>
<mask id="mask2_1879_2145" style="mask-type:alpha" maskUnits="userSpaceOnUse" x="28" y="14" width="51" height="57">
<ellipse cx="24.083" cy="29.1112" rx="24.083" ry="29.1112" transform="matrix(0.792709 -0.623398 0.558837 0.819714 17.7734 33.918)" fill="#2A54FF"/>
</mask>
<g mask="url(#mask2_1879_2145)">
<rect width="52.2149" height="4.19521" transform="matrix(0.820925 -0.580636 0.520043 0.848132 31.1172 56.4531)" fill="#23262F"/>
<rect width="52.2149" height="25.9128" transform="matrix(0.820924 -0.580637 0.520042 0.848132 34.625 62.8945)" fill="#23262F"/>
</g>
<path d="M66.9152 31.6982C71.3737 38.238 73.4691 45.6724 73.2629 52.3978C73.0567 59.1231 70.5518 65.1221 65.8271 68.8376C61.1024 72.5532 55.0212 73.3065 48.9895 71.4868C42.9577 69.667 36.9916 65.2766 32.5331 58.7368C28.0746 52.197 25.9792 44.7627 26.1854 38.0372C26.3916 31.312 28.8965 25.313 33.6212 21.5974C38.3459 17.8818 44.4271 17.1286 50.4588 18.9483C56.4906 20.768 62.4567 25.1584 66.9152 31.6982Z" fill="white" stroke="black" stroke-width="0.532499"/>
<mask id="mask3_1879_2145" style="mask-type:alpha" maskUnits="userSpaceOnUse" x="26" y="18" width="48" height="55">
<ellipse cx="21.6081" cy="28.6246" rx="21.6081" ry="28.6246" transform="matrix(0.792709 -0.623398 0.558838 0.819714 16.6406 35.2227)" fill="white"/>
</mask>
<g mask="url(#mask3_1879_2145)">
<rect width="61.7053" height="32.4319" transform="matrix(0.957193 -0.227342 0.2047 0.994035 20.1406 48.5977)" fill="#2F68FC"/>
</g>
</g>
<defs>
<clipPath id="clip0_1879_2145">
<rect width="128" height="118" fill="white"/>
</clipPath>
</defs>
</svg>
