<svg width="128" height="118" viewBox="0 0 128 118" fill="none" xmlns="http://www.w3.org/2000/svg">
<g clip-path="url(#clip0_1879_2151)">
<ellipse cx="60.4679" cy="21.0748" rx="60.4679" ry="21.0748" transform="matrix(0.932993 0.359895 -0.359764 0.933043 15.1641 36.3418)" fill="#E5EBF5"/>
<mask id="mask0_1879_2151" style="mask-type:alpha" maskUnits="userSpaceOnUse" x="7" y="48" width="114" height="60">
<ellipse cx="60.4679" cy="21.0748" rx="60.4679" ry="21.0748" transform="matrix(0.932993 0.359895 -0.359764 0.933043 15.1641 36.3438)" fill="#E5EBF5"/>
</mask>
<g mask="url(#mask0_1879_2151)">
<ellipse cx="60.4658" cy="15.6144" rx="60.4658" ry="15.6144" transform="matrix(0.993368 0.11498 -0.11492 0.993375 35.4922 49.8125)" fill="#23262F"/>
</g>
<path d="M69.2527 55.3963C72.0267 49.0939 79.3234 46.159 85.6886 48.7841C95.0897 53.4067 99.4065 64.4441 95.6346 74.2181L93.1042 80.7752L65.0647 64.9115L69.2527 55.3963Z" fill="white" stroke="black" stroke-width="0.425415"/>
<mask id="mask1_1879_2151" style="mask-type:alpha" maskUnits="userSpaceOnUse" x="65" y="47" width="32" height="34">
<path d="M69.407 55.579C72.1358 49.38 79.3134 46.4939 85.5739 49.0774C94.8091 53.6139 99.0521 64.4533 95.3498 74.0536L92.9079 80.3857L65.3417 64.8138L69.407 55.579Z" fill="white" stroke="black" stroke-width="0.320991"/>
</mask>
<g mask="url(#mask1_1879_2151)">
<rect width="49.892" height="12.5125" transform="matrix(0.875714 0.482889 -0.482635 0.87579 67.7578 36.9727)" fill="#8AABFF"/>
</g>
<path d="M98.8588 45.5091C97.2423 50.6401 92.266 53.5966 87.7772 52.1818C83.2885 50.7669 80.9059 45.4908 82.5225 40.3598C84.139 35.2289 89.1152 32.2723 93.604 33.6872C98.0927 35.1021 100.475 40.3782 98.8588 45.5091Z" fill="white" stroke="black" stroke-width="0.425415"/>
<path d="M38.0524 64.5361C34.3477 50.7194 45.4142 37.3905 59.6761 38.4919C71.8041 40.4576 80.6415 51.0425 80.4108 63.3266L80.1668 76.316L74.4222 77.8346L38.4331 65.9561L38.0524 64.5361Z" fill="#23262F"/>
<path d="M34.7482 53.5924C36.0479 44.5206 44.3509 38.146 53.4498 39.2325C67.1341 41.7859 76.6041 54.3678 75.27 68.225L74.3695 77.5782L32.7851 67.2944L34.7482 53.5924Z" fill="white" stroke="black" stroke-width="0.425415"/>
<mask id="mask2_1879_2151" style="mask-type:alpha" maskUnits="userSpaceOnUse" x="33" y="39" width="43" height="39">
<path d="M35.1347 53.7721C36.4083 44.8865 44.5415 38.643 53.4536 39.708C66.8591 42.2051 76.1388 54.5273 74.8351 68.1016L73.975 77.0562L33.2372 67.0105L35.1347 53.7721Z" fill="white" stroke="black" stroke-width="0.425415"/>
</mask>
<g mask="url(#mask2_1879_2151)">
<rect width="66.1218" height="21.8514" transform="matrix(0.973324 0.229452 -0.229276 0.973357 29.4141 51.2539)" fill="#2F68FC"/>
</g>
<path d="M70.6349 24.7573C72.1172 32.7719 67.7352 40.2661 60.8958 41.5319C54.0564 42.7977 47.2842 37.368 45.8019 29.3533C44.3197 21.3386 48.7016 13.8445 55.541 12.5787C62.3804 11.3128 69.1526 16.7426 70.6349 24.7573Z" fill="white" stroke="black" stroke-width="0.267449"/>
<mask id="mask3_1879_2151" style="mask-type:alpha" maskUnits="userSpaceOnUse" x="45" y="12" width="27" height="30">
<ellipse cx="12.7611" cy="14.8558" rx="12.7611" ry="14.8558" transform="matrix(0.9833 -0.181988 0.18186 0.983325 42.9688 14.7695)" fill="#2A54FF"/>
</mask>
<g mask="url(#mask3_1879_2151)">
<rect width="27.6805" height="2.1398" transform="matrix(0.991124 -0.132933 0.132848 0.991138 45.3828 35.0742)" fill="black"/>
<rect width="27.6805" height="13.2171" transform="matrix(0.991124 -0.132932 0.132849 0.991138 45.6797 38.8047)" fill="black"/>
</g>
<path d="M67.2487 25.2731C68.7273 33.2675 64.8371 40.5957 58.6802 41.7352C52.5232 42.8747 46.2695 37.4238 44.791 29.4294C43.3124 21.4351 47.2026 14.1068 53.3595 12.9673C59.5165 11.8278 65.7702 17.2787 67.2487 25.2731Z" fill="white" stroke="black" stroke-width="0.425415"/>
<mask id="mask4_1879_2151" style="mask-type:alpha" maskUnits="userSpaceOnUse" x="44" y="12" width="24" height="30">
<ellipse cx="11.4497" cy="14.6076" rx="11.4497" ry="14.6076" transform="matrix(0.983301 -0.181982 0.181866 0.983324 42.1406 15.082)" fill="white"/>
</mask>
<g mask="url(#mask4_1879_2151)">
<rect width="32.6245" height="16.5832" transform="matrix(0.973318 0.229441 -0.229287 0.973363 45.6484 5.16016)" fill="#2F68FC"/>
</g>
<mask id="path-19-inside-1_1879_2151" fill="white">
<path fill-rule="evenodd" clip-rule="evenodd" d="M85.354 63.1946L83.81 66.2867L87.6153 68.1878L89.1593 65.0957L92.2171 66.6234L94.1176 62.8172L91.0598 61.2896L92.6834 58.038L88.8781 56.1369L87.2545 59.3884L83.9702 57.7476L82.0696 61.5537L85.354 63.1946Z"/>
</mask>
<path fill-rule="evenodd" clip-rule="evenodd" d="M85.354 63.1946L83.81 66.2867L87.6153 68.1878L89.1593 65.0957L92.2171 66.6234L94.1176 62.8172L91.0598 61.2896L92.6834 58.038L88.8781 56.1369L87.2545 59.3884L83.9702 57.7476L82.0696 61.5537L85.354 63.1946Z" fill="white"/>
<path d="M83.81 66.2867L83.4294 66.0965L83.2394 66.4771L83.62 66.6673L83.81 66.2867ZM85.354 63.1946L85.7345 63.3847L85.9246 63.0041L85.544 62.814L85.354 63.1946ZM87.6153 68.1878L87.4253 68.5684L87.8058 68.7585L87.9959 68.3779L87.6153 68.1878ZM89.1593 65.0957L89.3493 64.7151L88.9688 64.525L88.7787 64.9056L89.1593 65.0957ZM92.2171 66.6234L92.0271 67.004L92.4076 67.1941L92.5977 66.8135L92.2171 66.6234ZM94.1176 62.8172L94.4982 63.0074L94.6883 62.6268L94.3077 62.4366L94.1176 62.8172ZM91.0598 61.2896L90.6793 61.0994L90.4892 61.48L90.8698 61.6702L91.0598 61.2896ZM92.6834 58.038L93.064 58.2282L93.254 57.8476L92.8734 57.6574L92.6834 58.038ZM88.8781 56.1369L89.0681 55.7563L88.6876 55.5662L88.4975 55.9468L88.8781 56.1369ZM87.2545 59.3884L87.0645 59.769L87.445 59.9592L87.6351 59.5786L87.2545 59.3884ZM83.9702 57.7476L84.1602 57.367L83.7797 57.1769L83.5896 57.5575L83.9702 57.7476ZM82.0696 61.5537L81.6891 61.3636L81.499 61.7442L81.8796 61.9343L82.0696 61.5537ZM84.1906 66.4768L85.7345 63.3847L84.9734 63.0045L83.4294 66.0965L84.1906 66.4768ZM87.8054 67.8072L84.0001 65.9061L83.62 66.6673L87.4253 68.5684L87.8054 67.8072ZM88.7787 64.9056L87.2348 67.9976L87.9959 68.3779L89.5399 65.2858L88.7787 64.9056ZM92.4072 66.2428L89.3493 64.7151L88.9692 65.4763L92.0271 67.004L92.4072 66.2428ZM93.7371 62.6271L91.8366 66.4332L92.5977 66.8135L94.4982 63.0074L93.7371 62.6271ZM90.8698 61.6702L93.9276 63.1978L94.3077 62.4366L91.2499 60.9089L90.8698 61.6702ZM92.3028 57.8479L90.6793 61.0994L91.4404 61.4797L93.064 58.2282L92.3028 57.8479ZM88.688 56.5175L92.4934 58.4187L92.8734 57.6574L89.0681 55.7563L88.688 56.5175ZM87.6351 59.5786L89.2587 56.3271L88.4975 55.9468L86.874 59.1983L87.6351 59.5786ZM83.7801 58.1282L87.0645 59.769L87.4446 59.0078L84.1602 57.367L83.7801 58.1282ZM82.4502 61.7439L84.3507 57.9377L83.5896 57.5575L81.6891 61.3636L82.4502 61.7439ZM85.544 62.814L82.2597 61.1731L81.8796 61.9343L85.1639 63.5752L85.544 62.814Z" fill="black" mask="url(#path-19-inside-1_1879_2151)"/>
</g>
<defs>
<clipPath id="clip0_1879_2151">
<rect width="128" height="118" fill="white"/>
</clipPath>
</defs>
</svg>
