<svg width="128" height="118" viewBox="0 0 128 118" fill="none" xmlns="http://www.w3.org/2000/svg">
<g clip-path="url(#clip0_1879_2165)">
<ellipse cx="60.4381" cy="21.0605" rx="60.4381" ry="21.0605" transform="matrix(0.94223 -0.334967 0.334912 0.942249 0 83.2695)" fill="#E5EBF5"/>
<mask id="mask0_1879_2165" style="mask-type:alpha" maskUnits="userSpaceOnUse" x="6" y="54" width="116" height="58">
<ellipse cx="60.4381" cy="21.0605" rx="60.4381" ry="21.0605" transform="matrix(0.94223 -0.334967 0.334912 0.942249 0 83.3047)" fill="#E5EBF5"/>
</mask>
<g mask="url(#mask0_1879_2165)">
<ellipse cx="60.4375" cy="21.06" rx="60.4375" ry="21.06" transform="matrix(0.969047 -0.246876 0.246833 0.969058 31.1719 54.8008)" fill="#23262F"/>
</g>
<path d="M30.3582 42.6991C29.9548 41.3518 30.9531 39.9915 32.359 39.9729L84.4956 39.283C85.4398 39.2705 86.2774 39.8856 86.5483 40.7905L96.216 73.0777C96.6194 74.4251 95.6211 75.7854 94.2152 75.804L42.0786 76.4939C41.1344 76.5064 40.2968 75.8913 40.0259 74.9864L30.3582 42.6991Z" fill="white" stroke="black" stroke-width="0.604685"/>
<mask id="mask1_1879_2165" style="mask-type:alpha" maskUnits="userSpaceOnUse" x="29" y="38" width="68" height="39">
<path d="M30.3661 42.7089C29.9626 41.3615 30.9609 40.0013 32.3669 39.9827L84.5038 39.2934C85.4481 39.281 86.2856 39.8961 86.5566 40.8009L96.2247 73.088C96.6281 74.4354 95.6298 75.7957 94.2239 75.8143L42.0869 76.5035C41.1427 76.516 40.3051 75.9009 40.0342 74.996L30.3661 42.7089Z" fill="white" stroke="black" stroke-width="0.604685"/>
</mask>
<g mask="url(#mask1_1879_2165)">
<path d="M23.8577 18.4991C23.3966 16.9592 24.5376 15.4046 26.1443 15.3833L78.2806 14.6929C79.3596 14.6786 80.3169 15.3816 80.6265 16.4157L90.2937 48.7031C90.7548 50.243 89.6138 51.7976 88.0071 51.8189L35.8708 52.5093C34.7918 52.5236 33.8345 51.8206 33.5249 50.7865L23.8577 18.4991Z" fill="#8AABFF"/>
</g>
<path d="M31.0669 14.9864C31.4944 14.8533 31.9531 14.8593 32.3771 15.0035L80.2524 31.2819C81.1571 31.5896 81.7437 32.4652 81.6838 33.4189L79.5013 68.1613C79.4917 68.3151 79.4652 68.4674 79.4225 68.6154L79.1432 69.583C78.918 70.3633 78.2661 70.9458 77.4655 71.0821L74.3894 71.6056C74.0293 71.6669 73.6594 71.6339 73.3157 71.5099L24.7222 53.9684C23.8371 53.6489 23.2691 52.7835 23.3281 51.8445L25.4439 18.1625C25.499 17.2866 26.0889 16.5356 26.9268 16.2748L31.0669 14.9864Z" fill="white" stroke="black" stroke-width="0.604684"/>
<mask id="mask2_1879_2165" style="mask-type:alpha" maskUnits="userSpaceOnUse" x="23" y="14" width="59" height="58">
<path d="M30.789 14.7562C31.3998 14.5661 32.0551 14.5747 32.6607 14.7806L79.9117 30.8468C81.2042 31.2862 82.0421 32.5372 81.9565 33.8996L79.8031 68.1803C79.792 68.3561 79.7618 68.5301 79.713 68.6993L79.4337 69.6669C79.1764 70.5587 78.4313 71.2244 77.5163 71.3802L74.4402 71.9037C74.0286 71.9737 73.6059 71.936 73.2131 71.7943L24.6196 54.2528C23.6081 53.8877 22.959 52.8987 23.0264 51.8255L25.1422 18.1434C25.2051 17.1424 25.8793 16.2842 26.8369 15.9862L30.789 14.7562Z" fill="#D9D9D9"/>
</mask>
<g mask="url(#mask2_1879_2165)">
<rect width="62.5325" height="29.9109" transform="matrix(0.99961 -0.0271509 0.0270362 0.999656 49.7109 58.2168)" fill="#23262F"/>
<rect width="62.5323" height="3.56654" transform="matrix(0.99961 -0.0271507 0.0270364 0.999656 49.9922 52.2012)" fill="#23262F"/>
</g>
<path d="M24.3897 18.4536C24.4778 17.0498 25.8855 16.1213 27.2108 16.5928L76.346 34.0743C77.2359 34.3909 77.8084 35.2588 77.7492 36.2015L75.6358 69.8454C75.5476 71.2492 74.1399 72.1777 72.8146 71.7062L23.6795 54.2247C22.7896 53.9081 22.217 53.0402 22.2762 52.0975L24.3897 18.4536Z" fill="white" stroke="black" stroke-width="0.604684"/>
<mask id="mask3_1879_2165" style="mask-type:alpha" maskUnits="userSpaceOnUse" x="22" y="16" width="56" height="56">
<path d="M24.9431 18.5476C25.0316 17.1386 26.4487 16.21 27.7761 16.6911L75.7074 34.0655C76.591 34.3858 77.1577 35.2504 77.0988 36.1884L74.9725 70.0381C74.9094 71.0413 73.9031 71.7045 72.9563 71.3668L23.8225 53.8447C23.1874 53.6182 22.779 52.9986 22.8212 52.3257L24.9431 18.5476Z" fill="white" stroke="black" stroke-width="0.604684"/>
</mask>
<g mask="url(#mask3_1879_2165)">
<path d="M11.7187 33.3691L79.076 57.6346L69.1313 94.7791L-0.408126 70.3156L11.7187 33.3691Z" fill="#2F68FC"/>
</g>
<ellipse cx="3.29807" cy="4.23027" rx="3.29807" ry="4.23027" transform="matrix(0.996534 -0.0827492 0.0573114 0.998387 60.3438 57.875)" fill="white"/>
<ellipse cx="3.29899" cy="4.22929" rx="3.29899" ry="4.22929" transform="matrix(0.995608 -0.0932073 0.0659826 0.997853 64.625 59.3906)" fill="#23262F"/>
<path d="M27.8259 27.3915L28.0156 24.3711L41.9173 29.4933L41.7275 32.5136L27.8259 27.3915Z" fill="#2A54FF"/>
<path d="M27.5525 34.0399L27.7422 31.0195L38.1057 34.7056L37.916 37.726L27.5525 34.0399Z" fill="#2A54FF"/>
</g>
<defs>
<clipPath id="clip0_1879_2165">
<rect width="128" height="118" fill="white"/>
</clipPath>
</defs>
</svg>
