<svg xmlns="http://www.w3.org/2000/svg" viewBox="0 0 223 76" width="223" height="76">
	<defs>
		<linearGradient id="grd1" gradientUnits="userSpaceOnUse"  x1="11130.909" y1="-2379.093" x2="11130.909" y2="5541.961">
			<stop offset="0" stop-color="#414953"  />
			<stop offset="66.226" stop-color="#ffffff" stop-opacity="0" />
			<stop offset="100" stop-color="#ffffff" stop-opacity="0" />
		</linearGradient>
	</defs>
	<style>
		tspan { white-space:pre }
		.shp0 { opacity: 0.243;fill: url(#grd1) } 
		.shp1 { fill: #414953 } 
		.shp2 { fill: #ffff00 } 
	</style>
	<g id="Symbols">
		<g id="委托-copy-2">
			<g id="Group-3">
				<g id="Group-15">
					<path id="Oval" fill-rule="evenodd" class="shp0" d="M222.81 78.49C222.81 61.35 172.97 47.46 111.5 47.46C50.03 47.46 0.19 61.35 0.19 78.49" />
					<g id="委托登记entrust_register">
						<path id="Shape" class="shp1" d="M137.68 37.4C137.03 36.75 126.4 27.43 125.75 26.78C125.1 26.13 124.45 26.13 124.45 26.13L107.53 26.13C107.53 26.13 104.93 26.45 104.93 28.84C104.93 30.46 105.9 31.87 107.53 32.2C109.16 32.52 112.19 33.17 114.8 33.5C115.77 33.5 114.8 34.15 114.8 34.15L111.43 36.43L100.16 36.43C100.16 36.43 95.49 33.07 92.24 30.46C87.25 26.78 85.3 30.46 85.3 30.46C85.3 30.46 84.65 31.77 85.3 32.42C87.9 34.69 97.55 43.37 98.2 44.02C98.85 44.67 99.83 44.34 99.83 44.34L119.35 44.34C120.98 44.34 121.95 45.32 121.95 45.32C121.95 45.32 124.99 48.03 125.97 48.68C127.59 49.98 128.24 48.68 128.24 48.68L137.14 39.03C137.68 39.03 138.33 38.06 137.68 37.4Z" />
						<path id="Combined-Shape" fill-rule="evenodd" class="shp1" d="M100.34 0.66C106.69 0.66 111.84 5.81 111.84 12.16C111.84 18.51 106.69 23.66 100.34 23.66C93.98 23.66 88.84 18.51 88.84 12.16C88.84 5.81 93.98 0.66 100.34 0.66ZM101.34 6.58L101.34 5.65C101.34 5.1 100.89 4.65 100.34 4.65C99.78 4.65 99.34 5.1 99.34 5.65L99.34 6.57C98.52 6.68 97.82 6.94 97.24 7.35C96.38 7.92 95.96 8.72 95.96 9.73C95.96 10.74 96.39 11.51 97.27 12.04C97.56 12.2 98.25 12.46 99.34 12.81L99.34 16.63C98.95 16.55 98.63 16.42 98.39 16.24C97.9 15.88 97.59 15.25 97.46 14.39L95.61 14.39C95.69 15.84 96.22 16.9 97.18 17.57C97.73 17.96 98.46 18.21 99.34 18.32L99.34 18.67C99.34 19.22 99.78 19.67 100.34 19.67C100.89 19.67 101.34 19.22 101.34 18.67L101.34 18.35C102.38 18.25 103.23 17.96 103.86 17.51C104.66 16.92 105.06 16.1 105.06 15.08C105.06 14.02 104.57 13.2 103.58 12.61C103.2 12.4 102.46 12.1 101.34 11.73L101.34 8.26C101.63 8.33 101.87 8.44 102.07 8.6C102.49 8.9 102.79 9.41 102.95 10.12L104.81 10.12C104.7 8.87 104.23 7.94 103.43 7.35C102.89 6.94 102.19 6.69 101.34 6.58ZM101.34 16.68L101.34 13.45C101.74 13.59 102 13.69 102.12 13.75C102.82 14.1 103.19 14.58 103.19 15.19C103.19 15.67 102.94 16.04 102.46 16.32C102.15 16.49 101.78 16.61 101.34 16.68ZM99.34 8.19L99.34 11.07C98.99 10.95 98.76 10.85 98.63 10.79C98.09 10.5 97.83 10.1 97.83 9.62C97.83 9.08 98.06 8.68 98.54 8.44C98.75 8.32 99.02 8.24 99.34 8.19Z" />
						<path id="Color Fill 1" fill-rule="evenodd" class="shp2" d="M100.34 0.66C106.69 0.66 111.84 5.81 111.84 12.16C111.84 18.51 106.69 23.66 100.34 23.66C93.98 23.66 88.84 18.51 88.84 12.16C88.84 5.81 93.98 0.66 100.34 0.66ZM101.34 6.58L101.34 5.65C101.34 5.1 100.89 4.65 100.34 4.65C99.78 4.65 99.34 5.1 99.34 5.65L99.34 6.57C98.52 6.68 97.82 6.94 97.24 7.35C96.38 7.92 95.96 8.72 95.96 9.73C95.96 10.74 96.39 11.51 97.27 12.04C97.56 12.2 98.25 12.46 99.34 12.81L99.34 16.63C98.95 16.55 98.63 16.42 98.39 16.24C97.9 15.88 97.59 15.25 97.46 14.39L95.61 14.39C95.69 15.84 96.22 16.9 97.18 17.57C97.73 17.96 98.46 18.21 99.34 18.32L99.34 18.67C99.34 19.22 99.78 19.67 100.34 19.67C100.89 19.67 101.34 19.22 101.34 18.67L101.34 18.35C102.38 18.25 103.23 17.96 103.86 17.51C104.66 16.92 105.06 16.1 105.06 15.08C105.06 14.02 104.57 13.2 103.58 12.61C103.2 12.4 102.46 12.1 101.34 11.73L101.34 8.26C101.63 8.33 101.87 8.44 102.07 8.6C102.49 8.9 102.79 9.41 102.95 10.12L104.81 10.12C104.7 8.87 104.23 7.94 103.43 7.35C102.89 6.94 102.19 6.69 101.34 6.58ZM101.34 16.68L101.34 13.45C101.74 13.59 102 13.69 102.12 13.75C102.82 14.1 103.19 14.58 103.19 15.19C103.19 15.67 102.94 16.04 102.46 16.32C102.15 16.49 101.78 16.61 101.34 16.68ZM99.34 8.19L99.34 11.07C98.99 10.95 98.76 10.85 98.63 10.79C98.09 10.5 97.83 10.1 97.83 9.62C97.83 9.08 98.06 8.68 98.54 8.44C98.75 8.32 99.02 8.24 99.34 8.19Z" />
					</g>
				</g>
			</g>
		</g>
	</g>
</svg>